<?xml version="1.0" standalone="no"?>
<!DOCTYPE svg PUBLIC "-//W3C//DTD SVG 20010904//EN"
 "http://www.w3.org/TR/2001/REC-SVG-20010904/DTD/svg10.dtd">
<svg version="1.0" xmlns="http://www.w3.org/2000/svg"
 width="200.000000pt" height="200.000000pt" viewBox="0 0 200.000000 200.000000"
 preserveAspectRatio="xMidYMid meet">

<g transform="translate(0.000000,200.000000) scale(0.100000,-0.100000)"
fill="#000000" stroke="none">
<path d="M907 1770 c-314 -37 -578 -268 -658 -575 -28 -110 -28 -280 0 -390
70 -269 285 -484 556 -556 111 -30 279 -30 390 0 271 72 484 285 556 556 30
111 30 279 0 390 -99 375 -459 620 -844 575z m243 -52 c143 -24 265 -93 382
-216 139 -146 201 -300 200 -502 0 -217 -70 -379 -230 -532 -146 -139 -299
-200 -502 -200 -203 0 -356 61 -502 200 -160 153 -230 315 -230 532 -1 202 61
356 200 502 141 147 265 207 487 232 38 4 112 -2 195 -16z"/>
<path d="M1232 1374 c-21 -14 -22 -22 -22 -167 0 -84 -3 -161 -6 -173 -5 -18
-20 -22 -167 -37 -89 -10 -173 -17 -186 -17 l-24 0 6 103 c4 56 13 129 21 162
15 58 15 61 -6 78 -59 50 -84 -6 -96 -218 l-7 -130 -26 -3 c-49 -6 -42 -62 8
-62 25 0 28 -12 37 -141 3 -42 10 -88 15 -102 14 -36 43 -50 68 -32 18 13 19
18 7 87 -6 40 -14 99 -16 130 l-5 57 51 5 c28 3 105 10 170 17 65 6 125 13
132 16 17 6 15 19 23 -162 6 -150 6 -150 33 -162 28 -14 53 -9 61 10 3 7 1 35
-4 62 -12 77 -11 516 3 596 6 42 7 73 2 78 -19 18 -50 20 -72 5z"/>
</g>
</svg>
